# xmcd
#
# Track frame offsets: 
#        150
#        23040
#        41375
#        58977
#        79850
#        96555
#        120197
#        142497
#        158985
#        179392
#        199042
#        219100
#
# Disc length: 3195 seconds
#
# Revision: 3
# Processed by: cddbd v1.5.2PL0 Copyright (c) Steve Scherf et al.
# Submitted via: ExactAudioCopy v0.99pb5
#
DISCID=a70c790c
DTITLE=Kurious - A Constipated Monkey
DYEAR=1994
DGENRE=Hip-Hop
TTITLE0=Spell It Wit A J (Yes, Yes Jorge)
TTITLE1=Top Notch
TTITLE2=I'm Kurious
TTITLE3=Uptown Shit
TTITLE4=Leave Ya' With This
TTITLE5=Fresh Out The Box
TTITLE6=Walk Like A Duck
TTITLE7=Tear Shit Up
TTITLE8=Baby Bust It
TTITLE9=Nikole
TTITLE10=What's The Real
TTITLE11=Jorge Of The Projects
EXTD=YEAR: 1994
EXTT0=
EXTT1=
EXTT2=
EXTT3=
EXTT4=
EXTT5=
EXTT6=
EXTT7=
EXTT8=
EXTT9=
EXTT10=
EXTT11=
PLAYORDER=
